<svg xmlns="http://www.w3.org/2000/svg" width="264.81" height="35" viewBox="0 0 264.81 35"><rect class="svg__rect" x="0" y="0" width="98.97" height="35" fill="#C6C6C6"/><rect class="svg__rect" x="96.97" y="0" width="167.84" height="35" fill="#5C5C5C"/><path class="svg__text" d="M17.33 22L14.22 22L14.22 13.47L17.14 13.47Q18.59 13.47 19.34 14.05Q20.10 14.63 20.10 15.78L20.10 15.78Q20.10 16.36 19.78 16.83Q19.47 17.30 18.86 17.56L18.86 17.56Q19.55 17.75 19.93 18.26Q20.31 18.78 20.31 19.51L20.31 19.51Q20.31 20.71 19.53 21.36Q18.76 22 17.33 22L17.33 22ZM15.70 18.15L15.70 20.82L17.35 20.82Q18.04 20.82 18.44 20.47Q18.83 20.13 18.83 19.51L18.83 19.51Q18.83 18.18 17.47 18.15L17.47 18.15L15.70 18.15ZM15.70 14.66L15.70 17.06L17.15 17.06Q17.84 17.06 18.23 16.75Q18.62 16.43 18.62 15.86L18.62 15.86Q18.62 15.23 18.26 14.95Q17.90 14.66 17.14 14.66L17.14 14.66L15.70 14.66ZM24.64 19.16L24.64 19.16L24.64 13.47L26.12 13.47L26.12 19.18Q26.12 20.03 26.55 20.48Q26.98 20.93 27.83 20.93L27.83 20.93Q29.54 20.93 29.54 19.13L29.54 19.13L29.54 13.47L31.02 13.47L31.02 19.17Q31.02 20.53 30.15 21.32Q29.28 22.12 27.83 22.12L27.83 22.12Q26.36 22.12 25.50 21.33Q24.64 20.55 24.64 19.16ZM37.15 22L35.67 22L35.67 13.47L37.15 13.47L37.15 22ZM47.32 22L41.96 22L41.96 13.47L43.44 13.47L43.44 20.82L47.32 20.82L47.32 22ZM53.90 22L51.44 22L51.44 13.47L53.96 13.47Q55.09 13.47 55.97 13.97Q56.84 14.48 57.32 15.40Q57.81 16.33 57.81 17.52L57.81 17.52L57.81 17.95Q57.81 19.16 57.32 20.08Q56.84 21.00 55.94 21.50Q55.05 22 53.90 22L53.90 22ZM52.92 14.66L52.92 20.82L53.89 20.82Q55.06 20.82 55.68 20.09Q56.31 19.36 56.32 17.99L56.32 17.99L56.32 17.52Q56.32 16.13 55.71 15.40Q55.11 14.66 53.96 14.66L53.96 14.66L52.92 14.66ZM71.36 22L68.25 22L68.25 13.47L71.17 13.47Q72.62 13.47 73.37 14.05Q74.13 14.63 74.13 15.78L74.13 15.78Q74.13 16.36 73.81 16.83Q73.50 17.30 72.89 17.56L72.89 17.56Q73.58 17.75 73.96 18.26Q74.33 18.78 74.33 19.51L74.33 19.51Q74.33 20.71 73.56 21.36Q72.79 22 71.36 22L71.36 22ZM69.73 18.15L69.73 20.82L71.38 20.82Q72.07 20.82 72.47 20.47Q72.86 20.13 72.86 19.51L72.86 19.51Q72.86 18.18 71.50 18.15L71.50 18.15L69.73 18.15ZM69.73 14.66L69.73 17.06L71.18 17.06Q71.87 17.06 72.26 16.75Q72.65 16.43 72.65 15.86L72.65 15.86Q72.65 15.23 72.29 14.95Q71.93 14.66 71.17 14.66L71.17 14.66L69.73 14.66ZM80.84 18.86L77.98 13.47L79.63 13.47L81.59 17.51L83.55 13.47L85.19 13.47L82.33 18.86L82.33 22L80.84 22L80.84 18.86Z" fill="#000000"/><path class="svg__text" d="M115.13 22L111.16 22L111.16 13.60L115.13 13.60Q116.51 13.60 117.58 14.12Q118.65 14.63 119.24 15.58Q119.82 16.53 119.82 17.80L119.82 17.80Q119.82 19.07 119.24 20.02Q118.65 20.97 117.58 21.48Q116.51 22 115.13 22L115.13 22ZM113.54 15.50L113.54 20.10L115.04 20.10Q116.11 20.10 116.77 19.49Q117.42 18.88 117.42 17.80L117.42 17.80Q117.42 16.72 116.77 16.11Q116.11 15.50 115.04 15.50L115.04 15.50L113.54 15.50ZM131.30 22L124.55 22L124.55 13.60L131.14 13.60L131.14 15.44L126.91 15.44L126.91 16.85L130.64 16.85L130.64 18.63L126.91 18.63L126.91 20.17L131.30 20.17L131.30 22ZM138.69 22L135.09 13.60L137.67 13.60L139.94 19.07L142.27 13.60L144.62 13.60L141.02 22L138.69 22ZM155.52 22L148.78 22L148.78 13.60L155.37 13.60L155.37 15.44L151.13 15.44L151.13 16.85L154.86 16.85L154.86 18.63L151.13 18.63L151.13 20.17L155.52 20.17L155.52 22ZM166.71 22L160.32 22L160.32 13.60L162.70 13.60L162.70 20.11L166.71 20.11L166.71 22ZM170.70 17.80L170.70 17.80Q170.70 16.55 171.30 15.55Q171.91 14.56 172.97 14.00Q174.03 13.43 175.36 13.43L175.36 13.43Q176.69 13.43 177.76 14.00Q178.82 14.56 179.43 15.55Q180.03 16.55 180.03 17.80L180.03 17.80Q180.03 19.05 179.43 20.04Q178.82 21.04 177.76 21.60Q176.70 22.17 175.36 22.17L175.36 22.17Q174.03 22.17 172.97 21.60Q171.91 21.04 171.30 20.04Q170.70 19.05 170.70 17.80ZM173.10 17.80L173.10 17.80Q173.10 18.51 173.40 19.05Q173.70 19.60 174.22 19.90Q174.73 20.20 175.36 20.20L175.36 20.20Q176.00 20.20 176.52 19.90Q177.03 19.60 177.33 19.05Q177.63 18.51 177.63 17.80L177.63 17.80Q177.63 17.09 177.33 16.54Q177.03 16 176.52 15.70Q176.00 15.40 175.36 15.40L175.36 15.40Q174.73 15.40 174.21 15.70Q173.70 16 173.40 16.54Q173.10 17.09 173.10 17.80ZM187.14 22L184.76 22L184.76 13.60L188.61 13.60Q189.74 13.60 190.58 13.98Q191.43 14.35 191.88 15.06Q192.34 15.76 192.34 16.71L192.34 16.71Q192.34 17.66 191.88 18.35Q191.43 19.05 190.58 19.42Q189.74 19.80 188.61 19.80L188.61 19.80L187.14 19.80L187.14 22ZM187.14 15.47L187.14 17.93L188.46 17.93Q189.19 17.93 189.57 17.61Q189.94 17.29 189.94 16.71L189.94 16.71Q189.94 16.12 189.57 15.80Q189.19 15.47 188.46 15.47L188.46 15.47L187.14 15.47ZM203.84 22L197.09 22L197.09 13.60L203.68 13.60L203.68 15.44L199.45 15.44L199.45 16.85L203.18 16.85L203.18 18.63L199.45 18.63L199.45 20.17L203.84 20.17L203.84 22ZM211.02 22L208.64 22L208.64 13.60L212.48 13.60Q213.63 13.60 214.46 13.98Q215.30 14.35 215.76 15.06Q216.22 15.76 216.22 16.71L216.22 16.71Q216.22 17.62 215.79 18.30Q215.36 18.98 214.57 19.36L214.57 19.36L216.38 22L213.84 22L212.31 19.77L211.02 19.77L211.02 22ZM211.02 15.47L211.02 17.93L212.34 17.93Q213.07 17.93 213.44 17.61Q213.81 17.29 213.81 16.71L213.81 16.71Q213.81 16.12 213.44 15.79Q213.07 15.47 212.34 15.47L212.34 15.47L211.02 15.47ZM233.75 20.91L227.84 18.72L227.84 16.88L233.75 14.69L233.75 16.45L229.92 17.80L233.75 19.16L233.75 20.91ZM239.51 23.20L237.49 23.20L241.45 11.90L243.47 11.90L239.51 23.20ZM253.00 18.72L247.09 20.91L247.09 19.16L250.92 17.80L247.09 16.45L247.09 14.69L253.00 16.88L253.00 18.72Z" fill="#FFFFFF" x="109.97"/></svg>