<svg xmlns="http://www.w3.org/2000/svg" width="127.21000000000001" height="35" viewBox="0 0 127.21000000000001 35"><rect class="svg__rect" x="0" y="0" width="55.28" height="35" fill="#C1D72F"/><rect class="svg__rect" x="53.28" y="0" width="73.93" height="35" fill="#419B5A"/><path class="svg__text" d="M15.70 22L14.22 22L14.22 13.47L19.64 13.47L19.64 14.66L15.70 14.66L15.70 17.20L19.13 17.20L19.13 18.38L15.70 18.38L15.70 22ZM23.53 18.00L23.53 18.00L23.53 17.52Q23.53 16.28 23.97 15.32Q24.41 14.37 25.22 13.86Q26.02 13.35 27.07 13.35Q28.11 13.35 28.92 13.85Q29.72 14.35 30.16 15.29Q30.60 16.23 30.61 17.48L30.61 17.48L30.61 17.96Q30.61 19.21 30.17 20.16Q29.74 21.10 28.93 21.61Q28.13 22.12 27.08 22.12L27.08 22.12Q26.04 22.12 25.23 21.61Q24.42 21.10 23.98 20.17Q23.53 19.23 23.53 18.00ZM25.01 17.46L25.01 17.96Q25.01 19.36 25.56 20.13Q26.11 20.90 27.08 20.90L27.08 20.90Q28.06 20.90 28.59 20.15Q29.12 19.40 29.12 17.96L29.12 17.96L29.12 17.51Q29.12 16.09 28.59 15.34Q28.05 14.58 27.07 14.58L27.07 14.58Q26.11 14.58 25.56 15.33Q25.02 16.09 25.01 17.46L25.01 17.46ZM36.55 22L35.07 22L35.07 13.47L38.07 13.47Q39.55 13.47 40.35 14.13Q41.15 14.79 41.15 16.05L41.15 16.05Q41.15 16.90 40.74 17.48Q40.33 18.06 39.59 18.37L39.59 18.37L41.50 21.92L41.50 22L39.92 22L38.21 18.71L36.55 18.71L36.55 22ZM36.55 14.66L36.55 17.52L38.08 17.52Q38.83 17.52 39.25 17.15Q39.67 16.77 39.67 16.11L39.67 16.11Q39.67 15.43 39.28 15.05Q38.89 14.68 38.12 14.66L38.12 14.66L36.55 14.66Z" fill="#FFFFFF"/><path class="svg__text" d="M71.44 22L67.47 22L67.47 13.60L71.44 13.60Q72.82 13.60 73.89 14.12Q74.96 14.63 75.55 15.58Q76.13 16.53 76.13 17.80L76.13 17.80Q76.13 19.07 75.55 20.02Q74.96 20.97 73.89 21.48Q72.82 22 71.44 22L71.44 22ZM69.85 15.50L69.85 20.10L71.35 20.10Q72.42 20.10 73.08 19.49Q73.73 18.88 73.73 17.80L73.73 17.80Q73.73 16.72 73.08 16.11Q72.42 15.50 71.35 15.50L71.35 15.50L69.85 15.50ZM82.28 22L79.85 22L83.56 13.60L85.91 13.60L89.62 22L87.16 22L86.49 20.37L82.94 20.37L82.28 22ZM84.72 15.93L83.63 18.61L85.80 18.61L84.72 15.93ZM93.35 17.80L93.35 17.80Q93.35 16.54 93.95 15.54Q94.54 14.55 95.61 13.99Q96.68 13.43 98.02 13.43L98.02 13.43Q99.20 13.43 100.14 13.83Q101.08 14.22 101.70 14.97L101.70 14.97L100.19 16.33Q99.34 15.40 98.17 15.40L98.17 15.40Q98.15 15.40 98.15 15.40L98.15 15.40Q97.07 15.40 96.41 16.06Q95.75 16.71 95.75 17.80L95.75 17.80Q95.75 18.50 96.05 19.04Q96.35 19.59 96.89 19.89Q97.43 20.20 98.12 20.20L98.12 20.20Q98.81 20.20 99.41 19.93L99.41 19.93L99.41 17.62L101.50 17.62L101.50 21.10Q100.78 21.61 99.85 21.89Q98.92 22.17 97.98 22.17L97.98 22.17Q96.66 22.17 95.60 21.61Q94.54 21.05 93.95 20.05Q93.35 19.06 93.35 17.80ZM106.07 17.80L106.07 17.80Q106.07 16.55 106.67 15.55Q107.28 14.56 108.34 14.00Q109.40 13.43 110.73 13.43L110.73 13.43Q112.06 13.43 113.13 14.00Q114.19 14.56 114.80 15.55Q115.40 16.55 115.40 17.80L115.40 17.80Q115.40 19.05 114.80 20.04Q114.19 21.04 113.13 21.60Q112.07 22.17 110.73 22.17L110.73 22.17Q109.40 22.17 108.34 21.60Q107.28 21.04 106.67 20.04Q106.07 19.05 106.07 17.80ZM108.47 17.80L108.47 17.80Q108.47 18.51 108.77 19.05Q109.07 19.60 109.59 19.90Q110.10 20.20 110.73 20.20L110.73 20.20Q111.37 20.20 111.89 19.90Q112.40 19.60 112.70 19.05Q113.00 18.51 113.00 17.80L113.00 17.80Q113.00 17.09 112.70 16.54Q112.40 16 111.89 15.70Q111.37 15.40 110.73 15.40L110.73 15.40Q110.09 15.40 109.58 15.70Q109.07 16 108.77 16.54Q108.47 17.09 108.47 17.80Z" fill="#FFFFFF" x="66.28"/></svg>